<?xml version="1.0" encoding="UTF-8"?>
<svg xmlns="http://www.w3.org/2000/svg" xmlns:xlink="http://www.w3.org/1999/xlink" width="101pt" height="116pt" viewBox="0 0 101 116" version="1.2">
<g id="surface1">
<path style=" stroke:none;fill-rule:nonzero;fill:rgb(13.725281%,12.156677%,12.548828%);fill-opacity:1;" d="M 81.847656 40.992188 L 95.5625 34.433594 L 95.5625 73.65625 Z M 52.976562 95.667969 L 86.492188 89.320312 L 52.976562 108.671875 Z M 48.167969 95.667969 L 48.167969 108.636719 L 14.75 89.339844 Z M 22.203125 36.832031 L 8.433594 30.5625 L 41.855469 11.269531 Z M 79.445312 36.808594 L 59.457031 11.328125 L 92.648438 30.492188 Z M 78.503906 45.457031 L 94.25 82.957031 L 55.007812 90.386719 Z M 46.183594 90.394531 L 6.804688 82.941406 L 23.125 45.429688 Z M 74.769531 42.21875 L 50.59375 88.449219 L 26.882812 42.21875 Z M 27.828125 37.40625 L 50.582031 7.808594 L 73.796875 37.40625 Z M 5.648438 34.582031 L 19.796875 41.023438 L 5.648438 73.539062 Z M 99.773438 29.050781 L 51.207031 1.011719 C 51.019531 0.902344 50.8125 0.847656 50.605469 0.847656 C 50.398438 0.847656 50.191406 0.902344 50.003906 1.011719 L 1.4375 29.050781 C 1.066406 29.265625 0.835938 29.660156 0.835938 30.089844 L 0.835938 86.167969 C 0.835938 86.597656 1.066406 86.996094 1.4375 87.210938 L 50.003906 115.25 C 50.191406 115.359375 50.398438 115.410156 50.605469 115.410156 C 50.8125 115.410156 51.019531 115.359375 51.207031 115.25 L 99.773438 87.210938 C 100.144531 86.996094 100.371094 86.597656 100.371094 86.167969 L 100.371094 30.089844 C 100.371094 29.660156 100.144531 29.265625 99.773438 29.050781 "/>
<path style=" stroke:none;fill-rule:nonzero;fill:rgb(13.725281%,12.156677%,12.548828%);fill-opacity:1;" d="M 81.742188 41.046875 L 95.457031 34.484375 L 95.457031 73.710938 Z M 52.871094 95.722656 L 86.386719 89.375 L 52.871094 108.726562 Z M 48.0625 95.722656 L 48.0625 108.691406 L 14.640625 89.394531 Z M 22.09375 36.886719 L 8.328125 30.617188 L 41.75 11.324219 Z M 79.339844 36.863281 L 59.351562 11.382812 L 92.542969 30.546875 Z M 78.398438 45.511719 L 94.144531 83.011719 L 54.902344 90.441406 Z M 46.078125 90.449219 L 6.699219 82.992188 L 23.015625 45.484375 Z M 74.664062 42.273438 L 50.488281 88.503906 L 26.777344 42.273438 Z M 27.722656 37.460938 L 50.476562 7.863281 L 73.691406 37.460938 Z M 5.542969 34.636719 L 19.6875 41.074219 L 5.542969 73.59375 Z M 99.664062 29.101562 L 51.097656 1.066406 C 50.914062 0.957031 50.707031 0.902344 50.5 0.902344 C 50.289062 0.902344 50.082031 0.957031 49.898438 1.066406 L 1.332031 29.101562 C 0.957031 29.316406 0.730469 29.714844 0.730469 30.144531 L 0.730469 86.222656 C 0.730469 86.652344 0.957031 87.050781 1.332031 87.265625 L 49.898438 115.304688 C 50.082031 115.410156 50.289062 115.464844 50.5 115.464844 C 50.707031 115.464844 50.914062 115.410156 51.097656 115.304688 L 99.664062 87.265625 C 100.039062 87.050781 100.265625 86.652344 100.265625 86.222656 L 100.265625 30.144531 C 100.265625 29.714844 100.039062 29.316406 99.664062 29.101562 "/>
</g>
</svg>
